<svg class="icon icon--arrow-right icon--xxsmall xxsmall" viewBox="0 0 22 22" xmlns="http://www.w3.org/2000/svg" fill-rule="evenodd" clip-rule="evenodd" stroke-linejoin="round" stroke-miterlimit="2"><path fill="none" d="M0 0h22v22H0z"></path><path d="M21.42 11c0 .339-.137.646-.357.866l-.022.031-.272.348-.371.428-.773.828-1.352 1.374-5.134 5.049a1.182 1.182 0 01-1.691-.034 1.23 1.23 0 01.034-1.719l4.11-4.048 1.89-1.907H1.776C1.116 12.216.58 11.672.58 11c0-.597.423-1.094.981-1.197l.215-.019h15.708l-1.098-1.115-3.187-3.157-1.717-1.683a1.23 1.23 0 01-.034-1.719 1.182 1.182 0 011.691-.034l5.174 5.089 1.397 1.422.509.542.511.579.273.344.049.071c.227.221.368.532.368.877z"></path></svg>